M48
; DRILL file KiCad 10.0.6 date 2026-10-06T20:06:33
; FORMAT={-:-/ absolute / metric / decimal}
; #@! TF.CreationDate,2026-10-06T20:06:33+05:30
; #@! TF.GenerationSoftware,Kicad,Pcbnew,10.0.6
; #@! TF.FileFunction,Plated,1,2,PTH
FMAT,2
METRIC
; #@! TA.AperFunction,Plated,PTH,ComponentDrill
T1C0.750
; #@! TA.AperFunction,Plated,PTH,ComponentDrill
T2C0.900
; #@! TA.AperFunction,Plated,PTH,ComponentDrill
T3C1.000
; #@! TA.AperFunction,Plated,PTH,ComponentDrill
T4C1.020
; #@! TA.AperFunction,Plated,PTH,ComponentDrill
T5C1.300
%
G90
G05
T1
X141.925Y-72.95
X143.925Y-72.95
T2
X137.41Y-61.2
X139.95Y-61.2
T3
X89.65Y-75.55
X89.65Y-78.09
X89.65Y-80.63
X89.65Y-83.17
X89.65Y-85.71
X89.65Y-88.25
X92.6Y-97.8
X100.2Y-97.8
X138.125Y-78.905
X138.125Y-81.445
X138.125Y-83.985
X138.125Y-86.525
X138.125Y-89.065
T4
X106.6Y-69.0
X106.6Y-71.54
X106.6Y-74.08
X106.6Y-76.62
X106.6Y-79.16
X106.6Y-81.7
X106.6Y-84.24
X106.6Y-86.78
X106.6Y-89.32
X106.6Y-91.86
X106.6Y-94.4
X106.6Y-96.94
X106.6Y-99.48
X106.6Y-102.02
X106.6Y-104.56
X132.0Y-69.0
X132.0Y-71.54
X132.0Y-74.08
X132.0Y-76.62
X132.0Y-79.16
X132.0Y-81.7
X132.0Y-84.24
X132.0Y-86.78
X132.0Y-89.32
X132.0Y-91.86
X132.0Y-94.4
X132.0Y-96.94
X132.0Y-99.48
X132.0Y-102.02
X132.0Y-104.56
T5
X90.3Y-111.9
X90.3Y-116.9
X102.8Y-111.9
X102.8Y-116.9
M30
