%TF.GenerationSoftware,KiCad,Pcbnew,10.0.6*%
%TF.CreationDate,2026-10-06T20:06:50+05:30*%
%TF.ProjectId,Safesteps,53616665-7374-4657-9073-2e6b69636164,rev?*%
%TF.SameCoordinates,Original*%
%TF.FileFunction,Legend,Top*%
%TF.FilePolarity,Positive*%
%FSLAX46Y46*%
G04 Gerber Fmt 4.6, Leading zero omitted, Abs format (unit mm)*
G04 Created by KiCad (PCBNEW 10.0.6) date 2026-10-06 20:06:50*
%MOMM*%
%LPD*%
G01*
G04 APERTURE LIST*
%ADD10C,0.150000*%
%ADD11C,0.127000*%
%ADD12C,0.200000*%
%ADD13C,0.120000*%
G04 APERTURE END LIST*
D10*
X88638095Y-122004819D02*
X88638095Y-121004819D01*
X88638095Y-121481009D02*
X89209523Y-121481009D01*
X89209523Y-122004819D02*
X89209523Y-121004819D01*
X89590476Y-121004819D02*
X90209523Y-121004819D01*
X90209523Y-121004819D02*
X89876190Y-121385771D01*
X89876190Y-121385771D02*
X90019047Y-121385771D01*
X90019047Y-121385771D02*
X90114285Y-121433390D01*
X90114285Y-121433390D02*
X90161904Y-121481009D01*
X90161904Y-121481009D02*
X90209523Y-121576247D01*
X90209523Y-121576247D02*
X90209523Y-121814342D01*
X90209523Y-121814342D02*
X90161904Y-121909580D01*
X90161904Y-121909580D02*
X90114285Y-121957200D01*
X90114285Y-121957200D02*
X90019047Y-122004819D01*
X90019047Y-122004819D02*
X89733333Y-122004819D01*
X89733333Y-122004819D02*
X89638095Y-121957200D01*
X89638095Y-121957200D02*
X89590476Y-121909580D01*
X142363095Y-57629819D02*
X142363095Y-56629819D01*
X142363095Y-57106009D02*
X142934523Y-57106009D01*
X142934523Y-57629819D02*
X142934523Y-56629819D01*
X143363095Y-56725057D02*
X143410714Y-56677438D01*
X143410714Y-56677438D02*
X143505952Y-56629819D01*
X143505952Y-56629819D02*
X143744047Y-56629819D01*
X143744047Y-56629819D02*
X143839285Y-56677438D01*
X143839285Y-56677438D02*
X143886904Y-56725057D01*
X143886904Y-56725057D02*
X143934523Y-56820295D01*
X143934523Y-56820295D02*
X143934523Y-56915533D01*
X143934523Y-56915533D02*
X143886904Y-57058390D01*
X143886904Y-57058390D02*
X143315476Y-57629819D01*
X143315476Y-57629819D02*
X143934523Y-57629819D01*
X107183095Y-56609819D02*
X107183095Y-57419342D01*
X107183095Y-57419342D02*
X107230714Y-57514580D01*
X107230714Y-57514580D02*
X107278333Y-57562200D01*
X107278333Y-57562200D02*
X107373571Y-57609819D01*
X107373571Y-57609819D02*
X107564047Y-57609819D01*
X107564047Y-57609819D02*
X107659285Y-57562200D01*
X107659285Y-57562200D02*
X107706904Y-57514580D01*
X107706904Y-57514580D02*
X107754523Y-57419342D01*
X107754523Y-57419342D02*
X107754523Y-56609819D01*
X108659285Y-56943152D02*
X108659285Y-57609819D01*
X108421190Y-56562200D02*
X108183095Y-57276485D01*
X108183095Y-57276485D02*
X108802142Y-57276485D01*
X138420833Y-67479819D02*
X138087500Y-67003628D01*
X137849405Y-67479819D02*
X137849405Y-66479819D01*
X137849405Y-66479819D02*
X138230357Y-66479819D01*
X138230357Y-66479819D02*
X138325595Y-66527438D01*
X138325595Y-66527438D02*
X138373214Y-66575057D01*
X138373214Y-66575057D02*
X138420833Y-66670295D01*
X138420833Y-66670295D02*
X138420833Y-66813152D01*
X138420833Y-66813152D02*
X138373214Y-66908390D01*
X138373214Y-66908390D02*
X138325595Y-66956009D01*
X138325595Y-66956009D02*
X138230357Y-67003628D01*
X138230357Y-67003628D02*
X137849405Y-67003628D01*
X139373214Y-67479819D02*
X138801786Y-67479819D01*
X139087500Y-67479819D02*
X139087500Y-66479819D01*
X139087500Y-66479819D02*
X138992262Y-66622676D01*
X138992262Y-66622676D02*
X138897024Y-66717914D01*
X138897024Y-66717914D02*
X138801786Y-66765533D01*
X145563095Y-121079819D02*
X145563095Y-120079819D01*
X145563095Y-120556009D02*
X146134523Y-120556009D01*
X146134523Y-121079819D02*
X146134523Y-120079819D01*
X147039285Y-120413152D02*
X147039285Y-121079819D01*
X146801190Y-120032200D02*
X146563095Y-120746485D01*
X146563095Y-120746485D02*
X147182142Y-120746485D01*
X137941905Y-57694819D02*
X137941905Y-56694819D01*
X137941905Y-56694819D02*
X138180000Y-56694819D01*
X138180000Y-56694819D02*
X138322857Y-56742438D01*
X138322857Y-56742438D02*
X138418095Y-56837676D01*
X138418095Y-56837676D02*
X138465714Y-56932914D01*
X138465714Y-56932914D02*
X138513333Y-57123390D01*
X138513333Y-57123390D02*
X138513333Y-57266247D01*
X138513333Y-57266247D02*
X138465714Y-57456723D01*
X138465714Y-57456723D02*
X138418095Y-57551961D01*
X138418095Y-57551961D02*
X138322857Y-57647200D01*
X138322857Y-57647200D02*
X138180000Y-57694819D01*
X138180000Y-57694819D02*
X137941905Y-57694819D01*
X139465714Y-57694819D02*
X138894286Y-57694819D01*
X139180000Y-57694819D02*
X139180000Y-56694819D01*
X139180000Y-56694819D02*
X139084762Y-56837676D01*
X139084762Y-56837676D02*
X138989524Y-56932914D01*
X138989524Y-56932914D02*
X138894286Y-56980533D01*
X142833333Y-79704580D02*
X142785714Y-79752200D01*
X142785714Y-79752200D02*
X142642857Y-79799819D01*
X142642857Y-79799819D02*
X142547619Y-79799819D01*
X142547619Y-79799819D02*
X142404762Y-79752200D01*
X142404762Y-79752200D02*
X142309524Y-79656961D01*
X142309524Y-79656961D02*
X142261905Y-79561723D01*
X142261905Y-79561723D02*
X142214286Y-79371247D01*
X142214286Y-79371247D02*
X142214286Y-79228390D01*
X142214286Y-79228390D02*
X142261905Y-79037914D01*
X142261905Y-79037914D02*
X142309524Y-78942676D01*
X142309524Y-78942676D02*
X142404762Y-78847438D01*
X142404762Y-78847438D02*
X142547619Y-78799819D01*
X142547619Y-78799819D02*
X142642857Y-78799819D01*
X142642857Y-78799819D02*
X142785714Y-78847438D01*
X142785714Y-78847438D02*
X142833333Y-78895057D01*
X143785714Y-79799819D02*
X143214286Y-79799819D01*
X143500000Y-79799819D02*
X143500000Y-78799819D01*
X143500000Y-78799819D02*
X143404762Y-78942676D01*
X143404762Y-78942676D02*
X143309524Y-79037914D01*
X143309524Y-79037914D02*
X143214286Y-79085533D01*
X142858333Y-83089580D02*
X142810714Y-83137200D01*
X142810714Y-83137200D02*
X142667857Y-83184819D01*
X142667857Y-83184819D02*
X142572619Y-83184819D01*
X142572619Y-83184819D02*
X142429762Y-83137200D01*
X142429762Y-83137200D02*
X142334524Y-83041961D01*
X142334524Y-83041961D02*
X142286905Y-82946723D01*
X142286905Y-82946723D02*
X142239286Y-82756247D01*
X142239286Y-82756247D02*
X142239286Y-82613390D01*
X142239286Y-82613390D02*
X142286905Y-82422914D01*
X142286905Y-82422914D02*
X142334524Y-82327676D01*
X142334524Y-82327676D02*
X142429762Y-82232438D01*
X142429762Y-82232438D02*
X142572619Y-82184819D01*
X142572619Y-82184819D02*
X142667857Y-82184819D01*
X142667857Y-82184819D02*
X142810714Y-82232438D01*
X142810714Y-82232438D02*
X142858333Y-82280057D01*
X143239286Y-82280057D02*
X143286905Y-82232438D01*
X143286905Y-82232438D02*
X143382143Y-82184819D01*
X143382143Y-82184819D02*
X143620238Y-82184819D01*
X143620238Y-82184819D02*
X143715476Y-82232438D01*
X143715476Y-82232438D02*
X143763095Y-82280057D01*
X143763095Y-82280057D02*
X143810714Y-82375295D01*
X143810714Y-82375295D02*
X143810714Y-82470533D01*
X143810714Y-82470533D02*
X143763095Y-82613390D01*
X143763095Y-82613390D02*
X143191667Y-83184819D01*
X143191667Y-83184819D02*
X143810714Y-83184819D01*
X89316666Y-72624819D02*
X89316666Y-73339104D01*
X89316666Y-73339104D02*
X89269047Y-73481961D01*
X89269047Y-73481961D02*
X89173809Y-73577200D01*
X89173809Y-73577200D02*
X89030952Y-73624819D01*
X89030952Y-73624819D02*
X88935714Y-73624819D01*
X90316666Y-73624819D02*
X89745238Y-73624819D01*
X90030952Y-73624819D02*
X90030952Y-72624819D01*
X90030952Y-72624819D02*
X89935714Y-72767676D01*
X89935714Y-72767676D02*
X89840476Y-72862914D01*
X89840476Y-72862914D02*
X89745238Y-72910533D01*
X95529047Y-88841009D02*
X95671904Y-88888628D01*
X95671904Y-88888628D02*
X95719523Y-88936247D01*
X95719523Y-88936247D02*
X95767142Y-89031485D01*
X95767142Y-89031485D02*
X95767142Y-89174342D01*
X95767142Y-89174342D02*
X95719523Y-89269580D01*
X95719523Y-89269580D02*
X95671904Y-89317200D01*
X95671904Y-89317200D02*
X95576666Y-89364819D01*
X95576666Y-89364819D02*
X95195714Y-89364819D01*
X95195714Y-89364819D02*
X95195714Y-88364819D01*
X95195714Y-88364819D02*
X95529047Y-88364819D01*
X95529047Y-88364819D02*
X95624285Y-88412438D01*
X95624285Y-88412438D02*
X95671904Y-88460057D01*
X95671904Y-88460057D02*
X95719523Y-88555295D01*
X95719523Y-88555295D02*
X95719523Y-88650533D01*
X95719523Y-88650533D02*
X95671904Y-88745771D01*
X95671904Y-88745771D02*
X95624285Y-88793390D01*
X95624285Y-88793390D02*
X95529047Y-88841009D01*
X95529047Y-88841009D02*
X95195714Y-88841009D01*
X96100476Y-88364819D02*
X96767142Y-88364819D01*
X96767142Y-88364819D02*
X96100476Y-89364819D01*
X96100476Y-89364819D02*
X96767142Y-89364819D01*
X97671904Y-89364819D02*
X97100476Y-89364819D01*
X97386190Y-89364819D02*
X97386190Y-88364819D01*
X97386190Y-88364819D02*
X97290952Y-88507676D01*
X97290952Y-88507676D02*
X97195714Y-88602914D01*
X97195714Y-88602914D02*
X97100476Y-88650533D01*
X92209048Y-95333866D02*
X92970953Y-95333866D01*
X92590000Y-95714819D02*
X92590000Y-94952914D01*
X91538095Y-57529819D02*
X91538095Y-56529819D01*
X91538095Y-57006009D02*
X92109523Y-57006009D01*
X92109523Y-57529819D02*
X92109523Y-56529819D01*
X93109523Y-57529819D02*
X92538095Y-57529819D01*
X92823809Y-57529819D02*
X92823809Y-56529819D01*
X92823809Y-56529819D02*
X92728571Y-56672676D01*
X92728571Y-56672676D02*
X92633333Y-56767914D01*
X92633333Y-56767914D02*
X92538095Y-56815533D01*
X138179819Y-99386904D02*
X138989342Y-99386904D01*
X138989342Y-99386904D02*
X139084580Y-99339285D01*
X139084580Y-99339285D02*
X139132200Y-99291666D01*
X139132200Y-99291666D02*
X139179819Y-99196428D01*
X139179819Y-99196428D02*
X139179819Y-99005952D01*
X139179819Y-99005952D02*
X139132200Y-98910714D01*
X139132200Y-98910714D02*
X139084580Y-98863095D01*
X139084580Y-98863095D02*
X138989342Y-98815476D01*
X138989342Y-98815476D02*
X138179819Y-98815476D01*
X138179819Y-98434523D02*
X138179819Y-97815476D01*
X138179819Y-97815476D02*
X138560771Y-98148809D01*
X138560771Y-98148809D02*
X138560771Y-98005952D01*
X138560771Y-98005952D02*
X138608390Y-97910714D01*
X138608390Y-97910714D02*
X138656009Y-97863095D01*
X138656009Y-97863095D02*
X138751247Y-97815476D01*
X138751247Y-97815476D02*
X138989342Y-97815476D01*
X138989342Y-97815476D02*
X139084580Y-97863095D01*
X139084580Y-97863095D02*
X139132200Y-97910714D01*
X139132200Y-97910714D02*
X139179819Y-98005952D01*
X139179819Y-98005952D02*
X139179819Y-98291666D01*
X139179819Y-98291666D02*
X139132200Y-98386904D01*
X139132200Y-98386904D02*
X139084580Y-98434523D01*
X142139285Y-69981009D02*
X142282142Y-70028628D01*
X142282142Y-70028628D02*
X142329761Y-70076247D01*
X142329761Y-70076247D02*
X142377380Y-70171485D01*
X142377380Y-70171485D02*
X142377380Y-70314342D01*
X142377380Y-70314342D02*
X142329761Y-70409580D01*
X142329761Y-70409580D02*
X142282142Y-70457200D01*
X142282142Y-70457200D02*
X142186904Y-70504819D01*
X142186904Y-70504819D02*
X141805952Y-70504819D01*
X141805952Y-70504819D02*
X141805952Y-69504819D01*
X141805952Y-69504819D02*
X142139285Y-69504819D01*
X142139285Y-69504819D02*
X142234523Y-69552438D01*
X142234523Y-69552438D02*
X142282142Y-69600057D01*
X142282142Y-69600057D02*
X142329761Y-69695295D01*
X142329761Y-69695295D02*
X142329761Y-69790533D01*
X142329761Y-69790533D02*
X142282142Y-69885771D01*
X142282142Y-69885771D02*
X142234523Y-69933390D01*
X142234523Y-69933390D02*
X142139285Y-69981009D01*
X142139285Y-69981009D02*
X141805952Y-69981009D01*
X142663095Y-69504819D02*
X143234523Y-69504819D01*
X142948809Y-70504819D02*
X142948809Y-69504819D01*
X144091666Y-70504819D02*
X143520238Y-70504819D01*
X143805952Y-70504819D02*
X143805952Y-69504819D01*
X143805952Y-69504819D02*
X143710714Y-69647676D01*
X143710714Y-69647676D02*
X143615476Y-69742914D01*
X143615476Y-69742914D02*
X143520238Y-69790533D01*
X137791666Y-90899819D02*
X137791666Y-91614104D01*
X137791666Y-91614104D02*
X137744047Y-91756961D01*
X137744047Y-91756961D02*
X137648809Y-91852200D01*
X137648809Y-91852200D02*
X137505952Y-91899819D01*
X137505952Y-91899819D02*
X137410714Y-91899819D01*
X138220238Y-90995057D02*
X138267857Y-90947438D01*
X138267857Y-90947438D02*
X138363095Y-90899819D01*
X138363095Y-90899819D02*
X138601190Y-90899819D01*
X138601190Y-90899819D02*
X138696428Y-90947438D01*
X138696428Y-90947438D02*
X138744047Y-90995057D01*
X138744047Y-90995057D02*
X138791666Y-91090295D01*
X138791666Y-91090295D02*
X138791666Y-91185533D01*
X138791666Y-91185533D02*
X138744047Y-91328390D01*
X138744047Y-91328390D02*
X138172619Y-91899819D01*
X138172619Y-91899819D02*
X138791666Y-91899819D01*
X94796667Y-106897200D02*
X94939524Y-106944819D01*
X94939524Y-106944819D02*
X95177619Y-106944819D01*
X95177619Y-106944819D02*
X95272857Y-106897200D01*
X95272857Y-106897200D02*
X95320476Y-106849580D01*
X95320476Y-106849580D02*
X95368095Y-106754342D01*
X95368095Y-106754342D02*
X95368095Y-106659104D01*
X95368095Y-106659104D02*
X95320476Y-106563866D01*
X95320476Y-106563866D02*
X95272857Y-106516247D01*
X95272857Y-106516247D02*
X95177619Y-106468628D01*
X95177619Y-106468628D02*
X94987143Y-106421009D01*
X94987143Y-106421009D02*
X94891905Y-106373390D01*
X94891905Y-106373390D02*
X94844286Y-106325771D01*
X94844286Y-106325771D02*
X94796667Y-106230533D01*
X94796667Y-106230533D02*
X94796667Y-106135295D01*
X94796667Y-106135295D02*
X94844286Y-106040057D01*
X94844286Y-106040057D02*
X94891905Y-105992438D01*
X94891905Y-105992438D02*
X94987143Y-105944819D01*
X94987143Y-105944819D02*
X95225238Y-105944819D01*
X95225238Y-105944819D02*
X95368095Y-105992438D01*
X95701429Y-105944819D02*
X95939524Y-106944819D01*
X95939524Y-106944819D02*
X96130000Y-106230533D01*
X96130000Y-106230533D02*
X96320476Y-106944819D01*
X96320476Y-106944819D02*
X96558572Y-105944819D01*
X97463333Y-106944819D02*
X96891905Y-106944819D01*
X97177619Y-106944819D02*
X97177619Y-105944819D01*
X97177619Y-105944819D02*
X97082381Y-106087676D01*
X97082381Y-106087676D02*
X96987143Y-106182914D01*
X96987143Y-106182914D02*
X96891905Y-106230533D01*
%TO.C,U4*%
D11*
X105020000Y-59040000D02*
X116089000Y-59040000D01*
X105020000Y-59040000D02*
X133530000Y-59040000D01*
X105020000Y-109990000D02*
X105020000Y-59040000D01*
X105020000Y-109990000D02*
X105020000Y-59040000D01*
X105020000Y-109990000D02*
X110390000Y-109990000D01*
X110390000Y-109990000D02*
X128080000Y-109990000D01*
X116089000Y-59040000D02*
X122800000Y-59040000D01*
X122800000Y-59040000D02*
X133530000Y-59040000D01*
X128080000Y-109990000D02*
X133530000Y-109990000D01*
X133530000Y-59040000D02*
X133530000Y-109990000D01*
X133530000Y-59040000D02*
X133530000Y-109990000D01*
X133530000Y-109990000D02*
X105020000Y-109990000D01*
D12*
X104550000Y-69000000D02*
G75*
G02*
X104350000Y-69000000I-100000J0D01*
G01*
X104350000Y-69000000D02*
G75*
G02*
X104550000Y-69000000I100000J0D01*
G01*
%TO.C,R1*%
D13*
X138360436Y-67940000D02*
X138814564Y-67940000D01*
X138360436Y-69410000D02*
X138814564Y-69410000D01*
%TO.C,D1*%
X136120000Y-59655000D02*
X136120000Y-62745000D01*
X136120000Y-59655170D02*
G75*
G02*
X141670000Y-61200000I2560000J-1544830D01*
G01*
X141670000Y-61200000D02*
G75*
G02*
X136120000Y-62744830I-2990000J0D01*
G01*
X141180000Y-61200000D02*
G75*
G02*
X136180000Y-61200000I-2500000J0D01*
G01*
X136180000Y-61200000D02*
G75*
G02*
X141180000Y-61200000I2500000J0D01*
G01*
%TO.C,C1*%
X142738748Y-80290000D02*
X143261252Y-80290000D01*
X142738748Y-81760000D02*
X143261252Y-81760000D01*
%TO.C,C2*%
X142763748Y-83675000D02*
X143286252Y-83675000D01*
X142763748Y-85145000D02*
X143286252Y-85145000D01*
%TO.C,J1*%
X88270000Y-74170000D02*
X89650000Y-74170000D01*
X88270000Y-75550000D02*
X88270000Y-74170000D01*
X88270000Y-76820000D02*
X88270000Y-89630000D01*
X88270000Y-76820000D02*
X91030000Y-76820000D01*
X88270000Y-89630000D02*
X91030000Y-89630000D01*
X91030000Y-76820000D02*
X91030000Y-89630000D01*
%TO.C,BZ1*%
X104000000Y-97800000D02*
G75*
G02*
X88800000Y-97800000I-7600000J0D01*
G01*
X88800000Y-97800000D02*
G75*
G02*
X104000000Y-97800000I7600000J0D01*
G01*
%TO.C,U3*%
D11*
X137040000Y-92550000D02*
X137040000Y-92655000D01*
X137040000Y-92550000D02*
X139535000Y-92550000D01*
X137040000Y-96995000D02*
X137040000Y-97100000D01*
X137040000Y-97100000D02*
X139535000Y-97100000D01*
X139535000Y-92550000D02*
X139535000Y-93380000D01*
X139535000Y-96270000D02*
X139535000Y-97100000D01*
D12*
X134675000Y-93325000D02*
G75*
G02*
X134475000Y-93325000I-100000J0D01*
G01*
X134475000Y-93325000D02*
G75*
G02*
X134675000Y-93325000I100000J0D01*
G01*
%TO.C,BT1*%
D13*
X139565000Y-70840000D02*
X139565000Y-72090000D01*
X139865000Y-72450000D02*
X140475000Y-72450000D01*
X139865000Y-73750000D02*
X140475000Y-73750000D01*
X140475000Y-71750000D02*
X140475000Y-75250000D01*
X140475000Y-75250000D02*
X145375000Y-75250000D01*
X140815000Y-70840000D02*
X139565000Y-70840000D01*
X141325000Y-70940000D02*
X141325000Y-71140000D01*
X141625000Y-70940000D02*
X141325000Y-70940000D01*
X141625000Y-71040000D02*
X141325000Y-71040000D01*
X141625000Y-71140000D02*
X141625000Y-70940000D01*
X142425000Y-71140000D02*
X142425000Y-71750000D01*
X142425000Y-71750000D02*
X140475000Y-71750000D01*
X142825000Y-74750000D02*
X143025000Y-74750000D01*
X142825000Y-75250000D02*
X142825000Y-74750000D01*
X142925000Y-75250000D02*
X142925000Y-74750000D01*
X143025000Y-74750000D02*
X143025000Y-75250000D01*
X143425000Y-71750000D02*
X143425000Y-71140000D01*
X145375000Y-71750000D02*
X143425000Y-71750000D01*
X145375000Y-75250000D02*
X145375000Y-71750000D01*
X145985000Y-72450000D02*
X145375000Y-72450000D01*
X145985000Y-73750000D02*
X145375000Y-73750000D01*
X139865000Y-71140000D02*
X145985000Y-71140000D01*
X145985000Y-75860000D01*
X139865000Y-75860000D01*
X139865000Y-71140000D01*
%TO.C,J2*%
X136745000Y-87795000D02*
X136745000Y-77525000D01*
X139505000Y-77525000D02*
X136745000Y-77525000D01*
X139505000Y-87795000D02*
X136745000Y-87795000D01*
X139505000Y-87795000D02*
X139505000Y-77525000D01*
X139505000Y-89065000D02*
X139505000Y-90445000D01*
X139505000Y-90445000D02*
X138125000Y-90445000D01*
%TO.C,SW1*%
X90440000Y-108290000D02*
X90440000Y-110800000D01*
X90440000Y-108290000D02*
X102660000Y-108290000D01*
X90440000Y-113100000D02*
X90440000Y-115700000D01*
X90440000Y-118000000D02*
X90440000Y-120510000D01*
X102660000Y-108290000D02*
X102660000Y-110800000D01*
X102660000Y-113100000D02*
X102660000Y-115700000D01*
X102660000Y-118000000D02*
X102660000Y-120510000D01*
X102660000Y-120510000D02*
X90440000Y-120510000D01*
X100100000Y-114400000D02*
G75*
G02*
X93000000Y-114400000I-3550000J0D01*
G01*
X93000000Y-114400000D02*
G75*
G02*
X100100000Y-114400000I3550000J0D01*
G01*
%TD*%
M02*
